<svg class="main-svg" xmlns="http://www.w3.org/2000/svg" xmlns:xlink="http://www.w3.org/1999/xlink" width="700" height="500" style="" viewBox="0 0 700 500"><rect x="0" y="0" width="700" height="500" style="fill: rgb(255, 255, 255); fill-opacity: 1;"/><defs id="defs-117b94"><g class="clips"/><g class="gradients"/><g class="patterns"/></defs><g class="bglayer"/><g class="layer-below"><g class="imagelayer"/><g class="shapelayer"/></g><g class="cartesianlayer"/><g class="polarlayer"/><g class="smithlayer"/><g class="ternarylayer"/><g class="geolayer"/><g class="funnelarealayer"/><g class="pielayer"/><g class="iciclelayer"/><g class="treemaplayer"/><g class="sunburstlayer"/><g class="glimages"/><g class="sankey" transform="translate(80,100)matrix(1 0 0 1 0 0)" style="box-sizing: content-box; position: absolute; left: 0px; shape-rendering: geometricprecision; pointer-events: none;"><g class="sankey-links" style="fill: none;"><path class="sankey-link" d="M20,185.97778627467594C140,185.97778627467594 140,267.05716268652003 260,267.05716268652003L260,274.08419823969206C140,274.08419823969206 140,193.00482182784796 20,193.00482182784796Z" style="stroke: rgb(68, 68, 68); stroke-opacity: 1; fill: rgb(220, 221, 221); fill-opacity: 1; stroke-width: 0; opacity: 1;"/><path class="sankey-link" d="M20,149.1351413962886C140,149.1351413962886 140,155.21451780813283 260,155.21451780813283L260,162.0522729423642C140,162.0522729423642 140,155.97289653051996 20,155.97289653051996Z" style="stroke: rgb(68, 68, 68); stroke-opacity: 1; fill: rgb(220, 221, 221); fill-opacity: 1; stroke-width: 0; opacity: 1;"/><path class="sankey-link" d="M20,229.6299332897566C140,229.6299332897566 140,274.08419823969206 260,274.08419823969206L260,280.86674658506575C140,280.86674658506575 140,236.4124816351303 20,236.4124816351303Z" style="stroke: rgb(68, 68, 68); stroke-opacity: 1; fill: rgb(220, 221, 221); fill-opacity: 1; stroke-width: 0; opacity: 1;"/><path class="sankey-link" d="M20,98.92062358815582C140,98.92062358815582 140,1.9895196601282805e-13 260,1.9895196601282805e-13L260,6.735228240638704C140,6.735228240638704 140,105.65585182879431 20,105.65585182879431Z" style="stroke: rgb(68, 68, 68); stroke-opacity: 1; fill: rgb(220, 221, 221); fill-opacity: 1; stroke-width: 0; opacity: 1;"/><path class="sankey-link" d="M20,111.51565813183228C140,111.51565813183228 140,27.595034543676633 260,27.595034543676633L260,34.08577557651679C140,34.08577557651679 140,118.00639916467244 20,118.00639916467244Z" style="stroke: rgb(68, 68, 68); stroke-opacity: 1; fill: rgb(220, 221, 221); fill-opacity: 1; stroke-width: 0; opacity: 1;"/><path class="sankey-link" d="M20,118.00639916467243C140,118.00639916467243 140,49.08577557651677 260,49.08577557651677L260,55.54891321492808C140,55.54891321492808 140,124.46953680308373 20,124.46953680308373Z" style="stroke: rgb(68, 68, 68); stroke-opacity: 1; fill: rgb(220, 221, 221); fill-opacity: 1; stroke-width: 0; opacity: 1;"/><path class="sankey-link" d="M20,124.46953680308374C140,124.46953680308374 140,70.54891321492804 260,70.54891321492804L260,76.94895738035913C140,76.94895738035913 140,130.86958096851484 20,130.86958096851484Z" style="stroke: rgb(68, 68, 68); stroke-opacity: 1; fill: rgb(220, 221, 221); fill-opacity: 1; stroke-width: 0; opacity: 1;"/><path class="sankey-link" d="M20,167.73588589926976C140,167.73588589926976 140,203.81526231111388 260,203.81526231111388L260,210.07334616233948C140,210.07334616233948 140,173.99396975049535 20,173.99396975049535Z" style="stroke: rgb(68, 68, 68); stroke-opacity: 1; fill: rgb(220, 221, 221); fill-opacity: 1; stroke-width: 0; opacity: 1;"/><path class="sankey-link" d="M20,130.86958096851484C140,130.86958096851484 140,91.94895738035913 260,91.94895738035913L260,98.19126786333968C140,98.19126786333968 140,137.11189145149538 20,137.11189145149538Z" style="stroke: rgb(68, 68, 68); stroke-opacity: 1; fill: rgb(220, 221, 221); fill-opacity: 1; stroke-width: 0; opacity: 1;"/><path class="sankey-link" d="M20,193.00482182784796C140,193.00482182784796 140,307.72831950534714 260,307.72831950534714L260,313.8996498312249C140,313.8996498312249 140,199.17615215372572 20,199.17615215372572Z" style="stroke: rgb(68, 68, 68); stroke-opacity: 1; fill: rgb(220, 221, 221); fill-opacity: 1; stroke-width: 0; opacity: 1;"/><path class="sankey-link" d="M20,137.11189145149538C140,137.11189145149538 140,113.19126786333965 260,113.19126786333965L260,119.29161803211468C140,119.29161803211468 140,143.21224162027042 20,143.21224162027042Z" style="stroke: rgb(68, 68, 68); stroke-opacity: 1; fill: rgb(220, 221, 221); fill-opacity: 1; stroke-width: 0; opacity: 1;"/><path class="sankey-link" d="M20,248.27405455541165C140,248.27405455541165 140,313.8996498312249 260,313.8996498312249L260,320C140,320 140,254.3744047241867 20,254.3744047241867Z" style="stroke: rgb(68, 68, 68); stroke-opacity: 1; fill: rgb(220, 221, 221); fill-opacity: 1; stroke-width: 0; opacity: 1;"/><path class="sankey-link" d="M20,173.99396975049535C140,173.99396975049535 140,225.07334616233948 260,225.07334616233948L260,231.1421495946244C140,231.1421495946244 140,180.0627731827803 20,180.0627731827803Z" style="stroke: rgb(68, 68, 68); stroke-opacity: 1; fill: rgb(220, 221, 221); fill-opacity: 1; stroke-width: 0; opacity: 1;"/><path class="sankey-link" d="M20,236.41248163513026C140,236.41248163513026 140,280.86674658506575 260,280.86674658506575L260,286.7975330452064C140,286.7975330452064 140,242.343268095271 20,242.343268095271Z" style="stroke: rgb(68, 68, 68); stroke-opacity: 1; fill: rgb(220, 221, 221); fill-opacity: 1; stroke-width: 0; opacity: 1;"/><path class="sankey-link" d="M20,242.34326809527096C140,242.34326809527096 140,286.7975330452065 260,286.7975330452065L260,292.72831950534714C140,292.72831950534714 140,248.27405455541168 20,248.27405455541168Z" style="stroke: rgb(68, 68, 68); stroke-opacity: 1; fill: rgb(220, 221, 221); fill-opacity: 1; stroke-width: 0; opacity: 1;"/><path class="sankey-link" d="M20,143.21224162027042C140,143.21224162027042 140,134.29161803211468 260,134.29161803211468L260,140.21451780813288C140,140.21451780813288 140,149.13514139628862 20,149.13514139628862Z" style="stroke: rgb(68, 68, 68); stroke-opacity: 1; fill: rgb(220, 221, 221); fill-opacity: 1; stroke-width: 0; opacity: 1;"/><path class="sankey-link" d="M20,180.0627731827803C140,180.0627731827803 140,246.1421495946244 260,246.1421495946244L260,252.05716268652003C140,252.05716268652003 140,185.9777862746759 20,185.9777862746759Z" style="stroke: rgb(68, 68, 68); stroke-opacity: 1; fill: rgb(220, 221, 221); fill-opacity: 1; stroke-width: 0; opacity: 1;"/><path class="sankey-link" d="M20,155.97289653051996C140,155.97289653051996 140,162.0522729423642 260,162.0522729423642L260,167.94756932395353C140,167.94756932395353 140,161.8681929121093 20,161.8681929121093Z" style="stroke: rgb(68, 68, 68); stroke-opacity: 1; fill: rgb(220, 221, 221); fill-opacity: 1; stroke-width: 0; opacity: 1;"/><path class="sankey-link" d="M20,161.8681929121093C140,161.8681929121093 140,182.94756932395342 260,182.94756932395342L260,188.81526231111388C140,188.81526231111388 140,167.73588589926976 20,167.73588589926976Z" style="stroke: rgb(68, 68, 68); stroke-opacity: 1; fill: rgb(220, 221, 221); fill-opacity: 1; stroke-width: 0; opacity: 1;"/><path class="sankey-link" d="M20,105.65585182879433C140,105.65585182879433 140,6.735228240638705 260,6.735228240638705L260,12.595034543676654C140,12.595034543676654 140,111.51565813183227 20,111.51565813183227Z" style="stroke: rgb(68, 68, 68); stroke-opacity: 1; fill: rgb(220, 221, 221); fill-opacity: 1; stroke-width: 0; opacity: 1;"/><path class="sankey-link" d="M280,267.05716268652003C400,267.05716268652003 400,132.0522729423643 520,132.0522729423643L520,139.07930849553634C400,139.07930849553634 400,274.08419823969206 280,274.08419823969206Z" style="stroke: rgb(68, 68, 68); stroke-opacity: 1; fill: rgb(220, 221, 221); fill-opacity: 1; stroke-width: 0; opacity: 1;"/><path class="sankey-link" d="M280,155.21451780813283C400,155.21451780813283 400,125.21451780813294 520,125.21451780813294L520,132.0522729423643C400,132.0522729423643 400,162.0522729423642 280,162.0522729423642Z" style="stroke: rgb(68, 68, 68); stroke-opacity: 1; fill: rgb(220, 221, 221); fill-opacity: 1; stroke-width: 0; opacity: 1;"/><path class="sankey-link" d="M280,274.08419823969206C400,274.08419823969206 400,139.07930849553634 520,139.07930849553634L520,145.86185684091004C400,145.86185684091004 400,280.86674658506575 280,280.86674658506575Z" style="stroke: rgb(68, 68, 68); stroke-opacity: 1; fill: rgb(220, 221, 221); fill-opacity: 1; stroke-width: 0; opacity: 1;"/><path class="sankey-link" d="M280,1.9895196601282805e-13C400,1.9895196601282805e-13 400,75.0000000000002 520,75.0000000000002L520,81.73522824063869C400,81.73522824063869 400,6.735228240638704 280,6.735228240638704Z" style="stroke: rgb(68, 68, 68); stroke-opacity: 1; fill: rgb(220, 221, 221); fill-opacity: 1; stroke-width: 0; opacity: 1;"/><path class="sankey-link" d="M280,27.595034543676633C400,27.595034543676633 400,87.59503454367666 520,87.59503454367666L520,94.08577557651682C400,94.08577557651682 400,34.08577557651679 280,34.08577557651679Z" style="stroke: rgb(68, 68, 68); stroke-opacity: 1; fill: rgb(220, 221, 221); fill-opacity: 1; stroke-width: 0; opacity: 1;"/><path class="sankey-link" d="M280,49.08577557651677C400,49.08577557651677 400,94.08577557651681 520,94.08577557651681L520,100.5489132149281C400,100.5489132149281 400,55.54891321492808 280,55.54891321492808Z" style="stroke: rgb(68, 68, 68); stroke-opacity: 1; fill: rgb(220, 221, 221); fill-opacity: 1; stroke-width: 0; opacity: 1;"/><path class="sankey-link" d="M280,70.54891321492804C400,70.54891321492804 400,100.54891321492812 520,100.54891321492812L520,106.94895738035922C400,106.94895738035922 400,76.94895738035913 280,76.94895738035913Z" style="stroke: rgb(68, 68, 68); stroke-opacity: 1; fill: rgb(220, 221, 221); fill-opacity: 1; stroke-width: 0; opacity: 1;"/><path class="sankey-link" d="M280,203.81526231111388C400,203.81526231111388 400,187.6248462096598 520,187.6248462096598L520,193.8829300608854C400,193.8829300608854 400,210.07334616233948 280,210.07334616233948Z" style="stroke: rgb(68, 68, 68); stroke-opacity: 1; fill: rgb(220, 221, 221); fill-opacity: 1; stroke-width: 0; opacity: 1;"/><path class="sankey-link" d="M280,91.94895738035913C400,91.94895738035913 400,106.9489573803592 520,106.9489573803592L520,113.19126786333975C400,113.19126786333975 400,98.19126786333968 280,98.19126786333968Z" style="stroke: rgb(68, 68, 68); stroke-opacity: 1; fill: rgb(220, 221, 221); fill-opacity: 1; stroke-width: 0; opacity: 1;"/><path class="sankey-link" d="M280,307.72831950534714C400,307.72831950534714 400,292.7283195053474 520,292.7283195053474L520,298.89964983122513C400,298.89964983122513 400,313.8996498312249 280,313.8996498312249Z" style="stroke: rgb(68, 68, 68); stroke-opacity: 1; fill: rgb(220, 221, 221); fill-opacity: 1; stroke-width: 0; opacity: 1;"/><path class="sankey-link" d="M280,113.19126786333965C400,113.19126786333965 400,113.19126786333973 520,113.19126786333973L520,119.29161803211477C400,119.29161803211477 400,119.29161803211468 280,119.29161803211468Z" style="stroke: rgb(68, 68, 68); stroke-opacity: 1; fill: rgb(220, 221, 221); fill-opacity: 1; stroke-width: 0; opacity: 1;"/><path class="sankey-link" d="M280,313.8996498312249C400,313.8996498312249 400,313.899649831225 520,313.899649831225L520,320.0000000000001C400,320.0000000000001 400,320 280,320Z" style="stroke: rgb(68, 68, 68); stroke-opacity: 1; fill: rgb(220, 221, 221); fill-opacity: 1; stroke-width: 0; opacity: 1;"/><path class="sankey-link" d="M280,225.07334616233948C400,225.07334616233948 400,208.8829300608854 520,208.8829300608854L520,214.95173349317034C400,214.95173349317034 400,231.1421495946244 280,231.1421495946244Z" style="stroke: rgb(68, 68, 68); stroke-opacity: 1; fill: rgb(220, 221, 221); fill-opacity: 1; stroke-width: 0; opacity: 1;"/><path class="sankey-link" d="M280,280.86674658506575C400,280.86674658506575 400,250.8667465850661 520,250.8667465850661L520,256.7975330452068C400,256.7975330452068 400,286.7975330452064 280,286.7975330452064Z" style="stroke: rgb(68, 68, 68); stroke-opacity: 1; fill: rgb(220, 221, 221); fill-opacity: 1; stroke-width: 0; opacity: 1;"/><path class="sankey-link" d="M280,286.7975330452065C400,286.7975330452065 400,271.7975330452067 520,271.7975330452067L520,277.7283195053474C400,277.7283195053474 400,292.72831950534714 280,292.72831950534714Z" style="stroke: rgb(68, 68, 68); stroke-opacity: 1; fill: rgb(220, 221, 221); fill-opacity: 1; stroke-width: 0; opacity: 1;"/><path class="sankey-link" d="M280,134.29161803211468C400,134.29161803211468 400,119.29161803211477 520,119.29161803211477L520,125.21451780813294C400,125.21451780813294 400,140.21451780813288 280,140.21451780813288Z" style="stroke: rgb(68, 68, 68); stroke-opacity: 1; fill: rgb(220, 221, 221); fill-opacity: 1; stroke-width: 0; opacity: 1;"/><path class="sankey-link" d="M280,246.1421495946244C400,246.1421495946244 400,229.9517334931704 520,229.9517334931704L520,235.866746585066C400,235.866746585066 400,252.05716268652003 280,252.05716268652003Z" style="stroke: rgb(68, 68, 68); stroke-opacity: 1; fill: rgb(220, 221, 221); fill-opacity: 1; stroke-width: 0; opacity: 1;"/><path class="sankey-link" d="M280,162.0522729423642C400,162.0522729423642 400,160.86185684091 520,160.86185684091L520,166.75715322249934C400,166.75715322249934 400,167.94756932395353 280,167.94756932395353Z" style="stroke: rgb(68, 68, 68); stroke-opacity: 1; fill: rgb(220, 221, 221); fill-opacity: 1; stroke-width: 0; opacity: 1;"/><path class="sankey-link" d="M280,182.94756932395342C400,182.94756932395342 400,166.75715322249934 520,166.75715322249934L520,172.6248462096598C400,172.6248462096598 400,188.81526231111388 280,188.81526231111388Z" style="stroke: rgb(68, 68, 68); stroke-opacity: 1; fill: rgb(220, 221, 221); fill-opacity: 1; stroke-width: 0; opacity: 1;"/><path class="sankey-link" d="M280,6.735228240638705C400,6.735228240638705 400,81.7352282406387 520,81.7352282406387L520,87.59503454367665C400,87.59503454367665 400,12.595034543676654 280,12.595034543676654Z" style="stroke: rgb(68, 68, 68); stroke-opacity: 1; fill: rgb(220, 221, 221); fill-opacity: 1; stroke-width: 0; opacity: 1;"/></g><g class="sankey-node-set" style="cursor: move;"><g class="sankey-node" transform="translate(0.000,98.921)" style="opacity: 1;"><rect class="node-rect" width="20" height="100.25552856556993" style="stroke-width: 0.5; stroke: rgb(0, 0, 0); stroke-opacity: 1; fill: rgb(216, 191, 216); fill-opacity: 1;"/><text class="node-label" data-notex="1" x="0" y="0" text-anchor="start" transform="translate(23.25,54.32776428278497)" style="cursor: default; font-family: 'Open Sans', verdana, arial, sans-serif; font-size: 12px; fill: rgb(42, 63, 95); fill-opacity: 1; text-shadow: rgb(255, 255, 255) 1px 1px 1px, rgb(255, 255, 255) -1px -1px 1px, rgb(255, 255, 255) 1px -1px 1px, rgb(255, 255, 255) -1px 1px 1px; white-space: pre;">CHL</text></g><g class="sankey-node" transform="translate(520.000,75.000)" style="opacity: 1;"><rect class="node-rect" width="20" height="70.86185684090981" style="stroke-width: 0.5; stroke: rgb(0, 0, 0); stroke-opacity: 1; fill: rgb(230, 230, 250); fill-opacity: 1;"/><text class="node-label" data-notex="1" x="0" y="0" text-anchor="end" transform="translate(-3.25,39.63092842045491)" style="cursor: default; font-family: 'Open Sans', verdana, arial, sans-serif; font-size: 12px; fill: rgb(42, 63, 95); fill-opacity: 1; text-shadow: rgb(255, 255, 255) 1px 1px 1px, rgb(255, 255, 255) -1px -1px 1px, rgb(255, 255, 255) 1px -1px 1px, rgb(255, 255, 255) -1px 1px 1px; white-space: pre;">Tail 10</text></g><g class="sankey-node" transform="translate(260.000,267.057)" style="opacity: 1;"><rect class="node-rect" width="20" height="25.671156818827114" style="stroke-width: 0.5; stroke: rgb(0, 0, 0); stroke-opacity: 1; fill: rgb(200, 162, 200); fill-opacity: 1;"/><text class="node-label" data-notex="1" x="0" y="0" text-anchor="start" transform="translate(23.25,17.035578409413556)" style="cursor: default; font-family: 'Open Sans', verdana, arial, sans-serif; font-size: 12px; fill: rgb(42, 63, 95); fill-opacity: 1; text-shadow: rgb(255, 255, 255) 1px 1px 1px, rgb(255, 255, 255) -1px -1px 1px, rgb(255, 255, 255) 1px -1px 1px, rgb(255, 255, 255) -1px 1px 1px; white-space: pre;">Cha</text></g><g class="sankey-node" transform="translate(0.000,229.630)" style="opacity: 1;"><rect class="node-rect" width="20" height="24.744471434430125" style="stroke-width: 0.5; stroke: rgb(0, 0, 0); stroke-opacity: 1; fill: rgb(221, 160, 221); fill-opacity: 1;"/><text class="node-label" data-notex="1" x="0" y="0" text-anchor="start" transform="translate(23.25,16.57223571721506)" style="cursor: default; font-family: 'Open Sans', verdana, arial, sans-serif; font-size: 12px; fill: rgb(42, 63, 95); fill-opacity: 1; text-shadow: rgb(255, 255, 255) 1px 1px 1px, rgb(255, 255, 255) -1px -1px 1px, rgb(255, 255, 255) 1px -1px 1px, rgb(255, 255, 255) -1px 1px 1px; white-space: pre;">LHL</text></g><g class="sankey-node" transform="translate(260.000,155.215)" style="opacity: 1;"><rect class="node-rect" width="20" height="12.733051515820591" style="stroke-width: 0.5; stroke: rgb(0, 0, 0); stroke-opacity: 1; fill: rgb(176, 144, 208); fill-opacity: 1;"/><text class="node-label" data-notex="1" x="0" y="0" text-anchor="start" transform="translate(23.25,10.566525757910295)" style="cursor: default; font-family: 'Open Sans', verdana, arial, sans-serif; font-size: 12px; fill: rgb(42, 63, 95); fill-opacity: 1; text-shadow: rgb(255, 255, 255) 1px 1px 1px, rgb(255, 255, 255) -1px -1px 1px, rgb(255, 255, 255) 1px -1px 1px, rgb(255, 255, 255) -1px 1px 1px; white-space: pre;">Asn</text></g><g class="sankey-node" transform="translate(260.000,0.000)" style="opacity: 1;"><rect class="node-rect" width="20" height="12.595034543676434" style="stroke-width: 0.5; stroke: rgb(0, 0, 0); stroke-opacity: 1; fill: rgb(147, 112, 219); fill-opacity: 1;"/><text class="node-label" data-notex="1" x="0" y="0" text-anchor="start" transform="translate(23.25,10.497517271838216)" style="cursor: default; font-family: 'Open Sans', verdana, arial, sans-serif; font-size: 12px; fill: rgb(42, 63, 95); fill-opacity: 1; text-shadow: rgb(255, 255, 255) 1px 1px 1px, rgb(255, 255, 255) -1px -1px 1px, rgb(255, 255, 255) 1px -1px 1px, rgb(255, 255, 255) -1px 1px 1px; white-space: pre;">Ser</text></g><g class="sankey-node" transform="translate(260.000,307.728)" style="opacity: 1;"><rect class="node-rect" width="20" height="12.271680494652855" style="stroke-width: 0.5; stroke: rgb(0, 0, 0); stroke-opacity: 1; fill: rgb(186, 85, 211); fill-opacity: 1;"/><text class="node-label" data-notex="1" x="0" y="0" text-anchor="start" transform="translate(23.25,10.335840247326427)" style="cursor: default; font-family: 'Open Sans', verdana, arial, sans-serif; font-size: 12px; fill: rgb(42, 63, 95); fill-opacity: 1; text-shadow: rgb(255, 255, 255) 1px 1px 1px, rgb(255, 255, 255) -1px -1px 1px, rgb(255, 255, 255) 1px -1px 1px, rgb(255, 255, 255) -1px 1px 1px; white-space: pre;">Lys</text></g><g class="sankey-node" transform="translate(520.000,160.862)" style="opacity: 1;"><rect class="node-rect" width="20" height="11.7629893687498" style="stroke-width: 0.5; stroke: rgb(0, 0, 0); stroke-opacity: 1; fill: rgb(160, 128, 200); fill-opacity: 1;"/><text class="node-label" data-notex="1" x="0" y="0" text-anchor="end" transform="translate(-3.25,10.0814946843749)" style="cursor: default; font-family: 'Open Sans', verdana, arial, sans-serif; font-size: 12px; fill: rgb(42, 63, 95); fill-opacity: 1; text-shadow: rgb(255, 255, 255) 1px 1px 1px, rgb(255, 255, 255) -1px -1px 1px, rgb(255, 255, 255) 1px -1px 1px, rgb(255, 255, 255) -1px 1px 1px; white-space: pre;">Tail 11</text></g><g class="sankey-node" transform="translate(260.000,27.595)" style="opacity: 1;"><rect class="node-rect" width="20" height="6.490741032840134" style="stroke-width: 0.5; stroke: rgb(0, 0, 0); stroke-opacity: 1; fill: rgb(201, 162, 216); fill-opacity: 1;"/><text class="node-label" data-notex="1" x="0" y="0" text-anchor="start" transform="translate(23.25,7.445370516420066)" style="cursor: default; font-family: 'Open Sans', verdana, arial, sans-serif; font-size: 12px; fill: rgb(42, 63, 95); fill-opacity: 1; text-shadow: rgb(255, 255, 255) 1px 1px 1px, rgb(255, 255, 255) -1px -1px 1px, rgb(255, 255, 255) 1px -1px 1px, rgb(255, 255, 255) -1px 1px 1px; white-space: pre;">Sem</text></g><g class="sankey-node" transform="translate(260.000,49.086)" style="opacity: 1;"><rect class="node-rect" width="20" height="6.463137638411268" style="stroke-width: 0.5; stroke: rgb(0, 0, 0); stroke-opacity: 1; fill: rgb(224, 176, 255); fill-opacity: 1;"/><text class="node-label" data-notex="1" x="0" y="0" text-anchor="start" transform="translate(23.25,7.4315688192056335)" style="cursor: default; font-family: 'Open Sans', verdana, arial, sans-serif; font-size: 12px; fill: rgb(42, 63, 95); fill-opacity: 1; text-shadow: rgb(255, 255, 255) 1px 1px 1px, rgb(255, 255, 255) -1px -1px 1px, rgb(255, 255, 255) 1px -1px 1px, rgb(255, 255, 255) -1px 1px 1px; white-space: pre;">Trp</text></g><g class="sankey-node" transform="translate(260.000,70.549)" style="opacity: 1;"><rect class="node-rect" width="20" height="6.4000441654310976" style="stroke-width: 0.5; stroke: rgb(0, 0, 0); stroke-opacity: 1; fill: rgb(218, 176, 232); fill-opacity: 1;"/><text class="node-label" data-notex="1" x="0" y="0" text-anchor="start" transform="translate(23.25,7.400022082715548)" style="cursor: default; font-family: 'Open Sans', verdana, arial, sans-serif; font-size: 12px; fill: rgb(42, 63, 95); fill-opacity: 1; text-shadow: rgb(255, 255, 255) 1px 1px 1px, rgb(255, 255, 255) -1px -1px 1px, rgb(255, 255, 255) 1px -1px 1px, rgb(255, 255, 255) -1px 1px 1px; white-space: pre;">Thr</text></g><g class="sankey-node" transform="translate(260.000,203.815)" style="opacity: 1;"><rect class="node-rect" width="20" height="6.258083851225592" style="stroke-width: 0.5; stroke: rgb(0, 0, 0); stroke-opacity: 1; fill: rgb(230, 207, 239); fill-opacity: 1;"/><text class="node-label" data-notex="1" x="0" y="0" text-anchor="start" transform="translate(23.25,7.329041925612795)" style="cursor: default; font-family: 'Open Sans', verdana, arial, sans-serif; font-size: 12px; fill: rgb(42, 63, 95); fill-opacity: 1; text-shadow: rgb(255, 255, 255) 1px 1px 1px, rgb(255, 255, 255) -1px -1px 1px, rgb(255, 255, 255) 1px -1px 1px, rgb(255, 255, 255) -1px 1px 1px; white-space: pre;">Orn</text></g><g class="sankey-node" transform="translate(520.000,187.625)" style="opacity: 1;"><rect class="node-rect" width="20" height="6.258083851225592" style="stroke-width: 0.5; stroke: rgb(0, 0, 0); stroke-opacity: 1; fill: rgb(243, 230, 250); fill-opacity: 1;"/><text class="node-label" data-notex="1" x="0" y="0" text-anchor="end" transform="translate(-3.25,7.329041925612795)" style="cursor: default; font-family: 'Open Sans', verdana, arial, sans-serif; font-size: 12px; fill: rgb(42, 63, 95); fill-opacity: 1; text-shadow: rgb(255, 255, 255) 1px 1px 1px, rgb(255, 255, 255) -1px -1px 1px, rgb(255, 255, 255) 1px -1px 1px, rgb(255, 255, 255) -1px 1px 1px; white-space: pre;">Tail 15</text></g><g class="sankey-node" transform="translate(260.000,91.949)" style="opacity: 1;"><rect class="node-rect" width="20" height="6.242310482980514" style="stroke-width: 0.5; stroke: rgb(0, 0, 0); stroke-opacity: 1; fill: rgb(232, 216, 248); fill-opacity: 1;"/><text class="node-label" data-notex="1" x="0" y="0" text-anchor="start" transform="translate(23.25,7.321155241490256)" style="cursor: default; font-family: 'Open Sans', verdana, arial, sans-serif; font-size: 12px; fill: rgb(42, 63, 95); fill-opacity: 1; text-shadow: rgb(255, 255, 255) 1px 1px 1px, rgb(255, 255, 255) -1px -1px 1px, rgb(255, 255, 255) 1px -1px 1px, rgb(255, 255, 255) -1px 1px 1px; white-space: pre;">Gln</text></g><g class="sankey-node" transform="translate(520.000,292.728)" style="opacity: 1;"><rect class="node-rect" width="20" height="6.171330325877648" style="stroke-width: 0.5; stroke: rgb(0, 0, 0); stroke-opacity: 1; fill: rgb(216, 191, 216); fill-opacity: 1;"/><text class="node-label" data-notex="1" x="0" y="0" text-anchor="end" transform="translate(-3.25,7.285665162938823)" style="cursor: default; font-family: 'Open Sans', verdana, arial, sans-serif; font-size: 12px; fill: rgb(42, 63, 95); fill-opacity: 1; text-shadow: rgb(255, 255, 255) 1px 1px 1px, rgb(255, 255, 255) -1px -1px 1px, rgb(255, 255, 255) 1px -1px 1px, rgb(255, 255, 255) -1px 1px 1px; white-space: pre;">Tail 2</text></g><g class="sankey-node" transform="translate(260.000,113.191)" style="opacity: 1;"><rect class="node-rect" width="20" height="6.100350168775037" style="stroke-width: 0.5; stroke: rgb(0, 0, 0); stroke-opacity: 1; fill: rgb(230, 230, 250); fill-opacity: 1;"/><text class="node-label" data-notex="1" x="0" y="0" text-anchor="start" transform="translate(23.25,7.250175084387518)" style="cursor: default; font-family: 'Open Sans', verdana, arial, sans-serif; font-size: 12px; fill: rgb(42, 63, 95); fill-opacity: 1; text-shadow: rgb(255, 255, 255) 1px 1px 1px, rgb(255, 255, 255) -1px -1px 1px, rgb(255, 255, 255) 1px -1px 1px, rgb(255, 255, 255) -1px 1px 1px; white-space: pre;">Tyr</text></g><g class="sankey-node" transform="translate(520.000,313.900)" style="opacity: 1;"><rect class="node-rect" width="20" height="6.10035016877498" style="stroke-width: 0.5; stroke: rgb(0, 0, 0); stroke-opacity: 1; fill: rgb(200, 162, 200); fill-opacity: 1;"/><text class="node-label" data-notex="1" x="0" y="0" text-anchor="end" transform="translate(-3.25,7.2501750843874895)" style="cursor: default; font-family: 'Open Sans', verdana, arial, sans-serif; font-size: 12px; fill: rgb(42, 63, 95); fill-opacity: 1; text-shadow: rgb(255, 255, 255) 1px 1px 1px, rgb(255, 255, 255) -1px -1px 1px, rgb(255, 255, 255) 1px -1px 1px, rgb(255, 255, 255) -1px 1px 1px; white-space: pre;">Tail 9</text></g><g class="sankey-node" transform="translate(260.000,225.073)" style="opacity: 1;"><rect class="node-rect" width="20" height="6.068803432284938" style="stroke-width: 0.5; stroke: rgb(0, 0, 0); stroke-opacity: 1; fill: rgb(221, 160, 221); fill-opacity: 1;"/><text class="node-label" data-notex="1" x="0" y="0" text-anchor="start" transform="translate(23.25,7.234401716142468)" style="cursor: default; font-family: 'Open Sans', verdana, arial, sans-serif; font-size: 12px; fill: rgb(42, 63, 95); fill-opacity: 1; text-shadow: rgb(255, 255, 255) 1px 1px 1px, rgb(255, 255, 255) -1px -1px 1px, rgb(255, 255, 255) 1px -1px 1px, rgb(255, 255, 255) -1px 1px 1px; white-space: pre;">Hcy</text></g><g class="sankey-node" transform="translate(520.000,208.883)" style="opacity: 1;"><rect class="node-rect" width="20" height="6.068803432284994" style="stroke-width: 0.5; stroke: rgb(0, 0, 0); stroke-opacity: 1; fill: rgb(176, 144, 208); fill-opacity: 1;"/><text class="node-label" data-notex="1" x="0" y="0" text-anchor="end" transform="translate(-3.25,7.2344017161424965)" style="cursor: default; font-family: 'Open Sans', verdana, arial, sans-serif; font-size: 12px; fill: rgb(42, 63, 95); fill-opacity: 1; text-shadow: rgb(255, 255, 255) 1px 1px 1px, rgb(255, 255, 255) -1px -1px 1px, rgb(255, 255, 255) 1px -1px 1px, rgb(255, 255, 255) -1px 1px 1px; white-space: pre;">Tail 7</text></g><g class="sankey-node" transform="translate(520.000,250.867)" style="opacity: 1;"><rect class="node-rect" width="20" height="5.9307864601406095" style="stroke-width: 0.5; stroke: rgb(0, 0, 0); stroke-opacity: 1; fill: rgb(147, 112, 219); fill-opacity: 1;"/><text class="node-label" data-notex="1" x="0" y="0" text-anchor="end" transform="translate(-3.25,7.165393230070304)" style="cursor: default; font-family: 'Open Sans', verdana, arial, sans-serif; font-size: 12px; fill: rgb(42, 63, 95); fill-opacity: 1; text-shadow: rgb(255, 255, 255) 1px 1px 1px, rgb(255, 255, 255) -1px -1px 1px, rgb(255, 255, 255) 1px -1px 1px, rgb(255, 255, 255) -1px 1px 1px; white-space: pre;">Tail 5</text></g><g class="sankey-node" transform="translate(520.000,271.798)" style="opacity: 1;"><rect class="node-rect" width="20" height="5.930786460140666" style="stroke-width: 0.5; stroke: rgb(0, 0, 0); stroke-opacity: 1; fill: rgb(186, 85, 211); fill-opacity: 1;"/><text class="node-label" data-notex="1" x="0" y="0" text-anchor="end" transform="translate(-3.25,7.1653932300703325)" style="cursor: default; font-family: 'Open Sans', verdana, arial, sans-serif; font-size: 12px; fill: rgb(42, 63, 95); fill-opacity: 1; text-shadow: rgb(255, 255, 255) 1px 1px 1px, rgb(255, 255, 255) -1px -1px 1px, rgb(255, 255, 255) 1px -1px 1px, rgb(255, 255, 255) -1px 1px 1px; white-space: pre;">Tail 8</text></g><g class="sankey-node" transform="translate(260.000,134.292)" style="opacity: 1;"><rect class="node-rect" width="20" height="5.922899776018141" style="stroke-width: 0.5; stroke: rgb(0, 0, 0); stroke-opacity: 1; fill: rgb(160, 128, 200); fill-opacity: 1;"/><text class="node-label" data-notex="1" x="0" y="0" text-anchor="start" transform="translate(23.25,7.16144988800907)" style="cursor: default; font-family: 'Open Sans', verdana, arial, sans-serif; font-size: 12px; fill: rgb(42, 63, 95); fill-opacity: 1; text-shadow: rgb(255, 255, 255) 1px 1px 1px, rgb(255, 255, 255) -1px -1px 1px, rgb(255, 255, 255) 1px -1px 1px, rgb(255, 255, 255) -1px 1px 1px; white-space: pre;">Met</text></g><g class="sankey-node" transform="translate(260.000,246.142)" style="opacity: 1;"><rect class="node-rect" width="20" height="5.9150130918956165" style="stroke-width: 0.5; stroke: rgb(0, 0, 0); stroke-opacity: 1; fill: rgb(201, 162, 216); fill-opacity: 1;"/><text class="node-label" data-notex="1" x="0" y="0" text-anchor="start" transform="translate(23.25,7.1575065459478076)" style="cursor: default; font-family: 'Open Sans', verdana, arial, sans-serif; font-size: 12px; fill: rgb(42, 63, 95); fill-opacity: 1; text-shadow: rgb(255, 255, 255) 1px 1px 1px, rgb(255, 255, 255) -1px -1px 1px, rgb(255, 255, 255) 1px -1px 1px, rgb(255, 255, 255) -1px 1px 1px; white-space: pre;">Pen</text></g><g class="sankey-node" transform="translate(520.000,229.952)" style="opacity: 1;"><rect class="node-rect" width="20" height="5.915013091895702" style="stroke-width: 0.5; stroke: rgb(0, 0, 0); stroke-opacity: 1; fill: rgb(224, 176, 255); fill-opacity: 1;"/><text class="node-label" data-notex="1" x="0" y="0" text-anchor="end" transform="translate(-3.25,7.15750654594785)" style="cursor: default; font-family: 'Open Sans', verdana, arial, sans-serif; font-size: 12px; fill: rgb(42, 63, 95); fill-opacity: 1; text-shadow: rgb(255, 255, 255) 1px 1px 1px, rgb(255, 255, 255) -1px -1px 1px, rgb(255, 255, 255) 1px -1px 1px, rgb(255, 255, 255) -1px 1px 1px; white-space: pre;">Tail 3</text></g><g class="sankey-node" transform="translate(260.000,182.948)" style="opacity: 1;"><rect class="node-rect" width="20" height="5.867692987160467" style="stroke-width: 0.5; stroke: rgb(0, 0, 0); stroke-opacity: 1; fill: rgb(218, 176, 232); fill-opacity: 1;"/><text class="node-label" data-notex="1" x="0" y="0" text-anchor="start" transform="translate(23.25,7.133846493580233)" style="cursor: default; font-family: 'Open Sans', verdana, arial, sans-serif; font-size: 12px; fill: rgb(42, 63, 95); fill-opacity: 1; text-shadow: rgb(255, 255, 255) 1px 1px 1px, rgb(255, 255, 255) -1px -1px 1px, rgb(255, 255, 255) 1px -1px 1px, rgb(255, 255, 255) -1px 1px 1px; white-space: pre;">His</text></g></g></g><defs id="topdefs-117b94"><g class="clips"/></defs><g class="layer-above"><g class="imagelayer"/><g class="shapelayer"/></g><g class="infolayer"><g class="g-gtitle"><text class="gtitle" x="35" y="50" text-anchor="start" dy="0em" style="opacity: 1; font-family: 'Open Sans', verdana, arial, sans-serif; font-size: 17px; fill: rgb(42, 63, 95); fill-opacity: 1; white-space: pre;">Sankey Diagram: Headgroup → Amino Acid → Tail</text></g><g class="first-render"/></g></svg>